<?xml version="1.0" encoding="UTF-8"?>
<!DOCTYPE svg PUBLIC "-//W3C//DTD SVG 1.1//EN" "http://www.w3.org/Graphics/SVG/1.1/DTD/svg11.dtd">
<svg xmlns="http://www.w3.org/2000/svg" version="1.1" width="355px" height="355px" style="shape-rendering:geometricPrecision; text-rendering:geometricPrecision; image-rendering:optimizeQuality; fill-rule:evenodd; clip-rule:evenodd" xmlns:xlink="http://www.w3.org/1999/xlink">
<g><path style="opacity:0.949" fill="#e30141" d="M 176.5,40.5 C 210.809,40.2324 237.309,54.2324 256,82.5C 271.4,112.574 269.733,141.574 251,169.5C 226.468,196.276 196.968,203.776 162.5,192C 130.023,175.541 117.523,149.374 125,113.5C 135.357,86.8938 154.857,72.8938 183.5,71.5C 213.774,73.2752 232.274,88.9418 239,118.5C 239.667,124.833 239.667,131.167 239,137.5C 238.548,140.149 237.714,142.649 236.5,145C 220.503,145.5 204.503,145.667 188.5,145.5C 188.5,139.167 188.5,132.833 188.5,126.5C 199.167,126.5 209.833,126.5 220.5,126.5C 218.487,103.654 205.987,91.3205 183,89.5C 153.06,93.4381 139.394,110.438 142,140.5C 151.793,170.993 172.626,183.493 204.5,178C 231.531,169.626 246.197,151.293 248.5,123C 244.886,88.0541 225.886,67.0541 191.5,60C 151.568,56.869 124.068,73.7023 109,110.5C 105.976,121.63 104.81,132.963 105.5,144.5C 99.1667,144.5 92.8333,144.5 86.5,144.5C 84.8243,93.2912 108.158,59.7912 156.5,44C 163.257,42.5017 169.923,41.3351 176.5,40.5 Z"/></g>
<g><path style="opacity:0.95" fill="#656663" d="M 43.5,233.5 C 56.4267,231.308 67.26,234.975 76,244.5C 77.9272,247.948 79.2606,251.615 80,255.5C 80.6667,267.167 80.6667,278.833 80,290.5C 77.4187,302.747 69.9187,309.913 57.5,312C 45.4346,313.868 35.268,310.368 27,301.5C 25.107,298.382 23.7736,295.049 23,291.5C 22.3333,278.833 22.3333,266.167 23,253.5C 26.0963,242.903 32.9296,236.236 43.5,233.5 Z M 47.5,247.5 C 56.3187,246.319 61.8187,249.985 64,258.5C 64.9025,269.226 64.5692,279.893 63,290.5C 57.6282,298.849 50.7949,300.349 42.5,295C 40.8978,293.065 39.7311,290.899 39,288.5C 38.3333,278.167 38.3333,267.833 39,257.5C 40.2613,252.745 43.0947,249.412 47.5,247.5 Z"/></g>
<g><path style="opacity:0.948" fill="#656663" d="M 86.5,234.5 C 100.171,234.333 113.837,234.5 127.5,235C 137.705,238.734 142.705,246.068 142.5,257C 143.03,267.281 138.697,274.614 129.5,279C 133.591,288.682 138.091,298.182 143,307.5C 143.684,308.784 143.517,309.951 142.5,311C 137.446,311.781 132.446,311.614 127.5,310.5C 122.41,300.653 117.577,290.653 113,280.5C 109.606,279.544 106.106,279.211 102.5,279.5C 102.666,289.839 102.5,300.172 102,310.5C 97,311.833 92,311.833 87,310.5C 86.5,285.169 86.3334,259.836 86.5,234.5 Z M 102.5,248.5 C 108.509,248.334 114.509,248.501 120.5,249C 126.645,252.535 127.979,257.368 124.5,263.5C 123.335,264.584 122.002,265.417 120.5,266C 114.509,266.499 108.509,266.666 102.5,266.5C 102.5,260.5 102.5,254.5 102.5,248.5 Z"/></g>
<g><path style="opacity:0.961" fill="#656663" d="M 142.5,234.5 C 161.833,234.5 181.167,234.5 200.5,234.5C 200.5,239.167 200.5,243.833 200.5,248.5C 193.5,248.5 186.5,248.5 179.5,248.5C 179.667,269.169 179.5,289.836 179,310.5C 174,311.833 169,311.833 164,310.5C 163.5,289.836 163.333,269.169 163.5,248.5C 156.825,248.666 150.158,248.5 143.5,248C 142.533,243.599 142.2,239.099 142.5,234.5 Z"/></g>
<g><path style="opacity:0.96" fill="#656663" d="M 206.5,234.5 C 224.167,234.5 241.833,234.5 259.5,234.5C 259.5,239.167 259.5,243.833 259.5,248.5C 247.167,248.5 234.833,248.5 222.5,248.5C 222.5,254.167 222.5,259.833 222.5,265.5C 230.833,265.5 239.167,265.5 247.5,265.5C 247.5,270.167 247.5,274.833 247.5,279.5C 239.167,279.5 230.833,279.5 222.5,279.5C 222.192,285.425 222.525,291.259 223.5,297C 235.495,297.5 247.495,297.667 259.5,297.5C 259.5,302.167 259.5,306.833 259.5,311.5C 241.923,311.825 224.423,311.492 207,310.5C 206.5,285.169 206.333,259.836 206.5,234.5 Z"/></g>
<g><path style="opacity:0.942" fill="#656663" d="M 266.5,234.5 C 271.844,234.334 277.177,234.501 282.5,235C 287.722,243.289 293.056,251.455 298.5,259.5C 304.277,251.458 309.944,243.291 315.5,235C 320.751,234.196 325.918,234.363 331,235.5C 331.824,260.543 331.657,285.543 330.5,310.5C 325.281,311.804 320.114,311.804 315,310.5C 314.667,294.833 314.333,279.167 314,263.5C 310.634,268.703 307.468,274.036 304.5,279.5C 300.033,282.42 295.867,282.086 292,278.5C 289.252,273.334 286.252,268.334 283,263.5C 282.667,279.167 282.333,294.833 282,310.5C 277,311.833 272,311.833 267,310.5C 266.5,285.169 266.333,259.836 266.5,234.5 Z"/></g>
</svg>
